<?xml version="1.0" standalone="no"?>
<!DOCTYPE svg PUBLIC "-//W3C//DTD SVG 20010904//EN"
 "http://www.w3.org/TR/2001/REC-SVG-20010904/DTD/svg10.dtd">
<svg version="1.0" xmlns="http://www.w3.org/2000/svg"
 width="631.000000pt" height="631.000000pt" viewBox="0 0 631.000000 631.000000"
 preserveAspectRatio="xMidYMid meet">
<metadata>
Created by potrace 1.14, written by Peter Selinger 2001-2017
</metadata>
<g transform="translate(0.000000,631.000000) scale(0.100000,-0.100000)"
fill="#000000" stroke="none">
<path d="M2100 5994 c-14 -2 -59 -9 -100 -15 -202 -30 -459 -121 -638 -226
-374 -219 -646 -558 -782 -973 -90 -275 -84 -187 -88 -1300 -2 -665 0 -1022 8
-1100 11 -113 42 -309 55 -342 6 -16 -16 -137 -75 -403 -16 -71 -54 -256 -85
-410 -31 -154 -76 -371 -101 -482 -24 -111 -44 -223 -44 -248 0 -57 19 -102
58 -139 47 -44 104 -46 242 -6 61 17 118 29 126 26 8 -3 13 -2 10 3 -7 11 190
65 205 55 7 -4 10 -3 6 3 -6 10 14 16 398 123 121 34 232 65 246 69 16 6 34 4
49 -4 17 -9 20 -14 9 -17 -8 -3 -5 -4 5 -2 11 2 35 -4 54 -13 25 -12 30 -18
20 -25 -9 -6 -6 -7 9 -3 14 4 55 -6 108 -25 47 -17 136 -44 197 -60 62 -15
103 -30 92 -32 -10 -3 1 -5 26 -5 25 0 117 -5 205 -11 200 -14 1592 -16 1760
-2 257 21 542 103 732 212 29 16 58 26 64 22 7 -4 9 -3 6 3 -3 5 7 17 24 27
16 9 29 14 29 9 0 -4 4 -2 8 4 9 14 89 -84 83 -102 -1 -5 1 -7 5 -3 4 4 22 -6
41 -22 18 -17 38 -30 44 -30 6 0 8 -3 6 -7 -7 -11 35 -16 128 -17 73 0 87 3
150 36 143 73 283 194 390 337 75 99 105 172 106 256 1 95 -14 122 -188 338
-57 70 -103 131 -103 135 0 4 17 44 39 87 39 80 111 265 111 285 0 6 35 10 93
10 111 0 153 11 209 53 59 44 90 109 89 186 0 106 -39 156 -213 278 l-107 75
-4 932 c-3 924 -3 932 -26 1031 -55 246 -150 472 -279 661 -104 153 -190 254
-294 341 -264 222 -460 318 -813 401 l-110 26 -1085 2 c-597 1 -1096 0 -1110
-2z"/>
<path d="M1992 458 c2 -6 10 -14 16 -16 7 -2 10 2 6 12 -7 18 -28 22 -22 4z"/>
</g>
</svg>
